<svg width="30" height="30" viewBox="0 0 30 30" fill="none" xmlns="http://www.w3.org/2000/svg">
<rect width="30" height="30" rx="15" fill="black"/>
<path d="M20.6406 13.482C21.3042 13.126 21.6367 12.948 21.818 12.6607C22 12.374 22 12.028 22 11.336V10.876C22 9.99201 22 9.54934 21.692 9.27467C21.3854 9 20.8905 9 19.9 9H10.1C9.1102 9 8.6153 9 8.308 9.27467C8.0007 9.54934 8 9.99201 8 10.8767V11.3367C8 12.028 8 12.374 8.182 12.6607C8.364 12.9474 8.6951 13.126 9.3594 13.482L11.3985 14.5754C11.8437 14.8141 12.067 14.9334 12.2266 15.0654C12.5584 15.3394 12.7628 15.6621 12.8552 16.0587C12.9 16.2481 12.9 16.4707 12.9 16.9154V18.6954C12.9 19.3014 12.9 19.6048 13.0764 19.8408C13.2528 20.0775 13.5664 20.1941 14.1922 20.4275C15.5075 20.9168 16.1648 21.1615 16.6324 20.8828C17.1 20.6041 17.1 19.9681 17.1 18.6948V16.9148C17.1 16.4707 17.1 16.2481 17.1448 16.0581C17.2327 15.6695 17.4542 15.32 17.7741 15.0647" stroke="white" stroke-width="1.5" stroke-linecap="round"/>
</svg>
